<?xml version="1.0" encoding="UTF-8"?>
<svg id="Camada_1" data-name="Camada 1" xmlns="http://www.w3.org/2000/svg" viewBox="0 0 585.11 242.42">
  <defs>
    <style>
      .cls-1 {
        fill: #3f3f3f;
      }

      .cls-2 {
        fill: none;
      }

      .cls-3 {
        isolation: isolate;
      }
    </style>
  </defs>
  <g>
    <path class="cls-1" d="M259.84,44.49l5.27,4.6c2.03,1.77,4.63,2.75,7.33,2.75h47.6c2.83,0,5.55-1.07,7.61-3l4.66-4.35c.33-.31.11-.86-.34-.86h-71.79c-.46,0-.67.56-.33.87h0Z"/>
    <path class="cls-1" d="M266.55,31.26l3.78,4.16c1.86,2.05,4.5,3.22,7.27,3.22h37.15c2.66,0,5.21-1.08,7.06-3l4.22-4.36c.41-.43.11-1.14-.48-1.14h-58.5c-.58,0-.89.69-.5,1.12h0Z"/>
    <path class="cls-1" d="M274.75,58.3l4.93,4.86c.09.09.15.22.15.35l-.04,29.98c0,.75.29,1.48.82,2.02l4.82,4.93c.23.23.62.07.62-.25v-33.48c0-.48.39-.86.86-.86h4.19c.48,0,.86.39.86.86v40.13c0,.23.09.45.26.6l6.36,6.09c.23.22.62.06.62-.26v-46.56c0-.48.38-.86.86-.86h3.87c.48,0,.86.38.86.86v34.2c0,.32.39.49.62.26l5.43-5.47c.54-.54.84-1.27.84-2.03v-29.96c0-.24.11-.48.29-.64l5.27-4.74c.59-.53.21-1.5-.58-1.5h-41.32c-.77,0-1.15.93-.6,1.47h.01Z"/>
  </g>
  <g class="cls-3">
    <path class="cls-1" d="M46.71,162.17h14.33c2.02,0,3.74-.73,5.18-2.2,1.44-1.46,2.16-3.2,2.16-5.22s-.72-3.74-2.16-5.18c-1.44-1.44-3.17-2.16-5.18-2.16h-14.33v-6.05h14.33c3.65,0,6.79,1.32,9.43,3.96,2.64,2.64,3.96,5.79,3.96,9.43,0,1.73-.31,3.37-.94,4.93-.62,1.56-1.51,2.96-2.66,4.21-1.15,1.25-2.5,2.23-4.03,2.95-1.82.86-3.74,1.3-5.76,1.3h-8.28v15.41h-6.05v-21.38Z"/>
    <path class="cls-1" d="M97.33,168.14h-11.66v-5.98h14.33c2.02,0,3.74-.73,5.18-2.2,1.44-1.46,2.16-3.2,2.16-5.22s-.72-3.74-2.16-5.18c-1.44-1.44-3.17-2.16-5.18-2.16h-14.33v-6.05h14.33c3.65,0,6.79,1.32,9.43,3.96,2.64,2.64,3.96,5.79,3.96,9.43,0,1.73-.31,3.37-.94,4.93-.62,1.56-1.51,2.96-2.66,4.21-1.15,1.25-2.5,2.23-4.03,2.95l-1.73.79,9.58,15.91h-7.06l-9.22-15.41Z"/>
    <path class="cls-1" d="M131.24,178.01c-4.32-4.32-6.48-9.53-6.48-15.62s2.16-11.29,6.48-15.59c4.32-4.29,9.53-6.44,15.62-6.44s11.29,2.15,15.59,6.44c4.29,4.3,6.44,9.49,6.44,15.59s-2.15,11.3-6.44,15.62c-4.3,4.32-9.49,6.48-15.59,6.48s-11.3-2.16-15.62-6.48ZM135.49,173.79c3.12,3.14,6.9,4.72,11.34,4.72s8.23-1.57,11.38-4.72c3.14-3.14,4.72-6.94,4.72-11.38s-1.57-8.23-4.72-11.38c-3.14-3.14-6.94-4.72-11.38-4.72s-8.22,1.57-11.34,4.72c-3.12,3.14-4.68,6.94-4.68,11.38s1.56,8.23,4.68,11.38Z"/>
    <path class="cls-1" d="M179.98,149.57v-8.21l21.31,19.58,21.38-19.58v42.19h-6.05v-28.51l-15.34,14.04-21.31-19.51ZM179.98,159.72v23.83h6.05v-18.29l-6.05-5.54Z"/>
    <path class="cls-1" d="M233.84,147.41v-6.05h29.16v6.05h-29.16ZM233.84,165.48v-6.05h29.16v6.05h-29.16ZM263,177.5v6.05h-29.16v-6.05h29.16Z"/>
    <path class="cls-1" d="M288.2,147.41h-14.04v-6.05h34.13v6.05h-14.04v36.14h-6.05v-36.14Z"/>
    <path class="cls-1" d="M319.44,165.48v-24.12h6.05v18.07h22.1v-18.07h5.98v42.19h-5.98v-18.07h-28.15ZM319.44,172.97v10.58h6.05v-10.58h-6.05Z"/>
    <path class="cls-1" d="M364.73,147.41v-6.05h29.16v6.05h-29.16ZM364.73,165.48v-6.05h29.16v6.05h-29.16ZM393.89,177.5v6.05h-29.16v-6.05h29.16Z"/>
    <path class="cls-1" d="M405.05,141.36h6.05v26.14c0,3.02,1.08,5.62,3.24,7.78s4.75,3.24,7.78,3.24,5.63-1.08,7.81-3.24c2.18-2.16,3.28-4.75,3.28-7.78v-26.14h5.98v26.14c0,4.7-1.67,8.72-5,12.06s-7.36,5-12.06,5-8.72-1.67-12.06-5c-3.34-3.34-5-7.36-5-12.06v-26.14Z"/>
    <path class="cls-1" d="M450.34,176.21l5.26-2.95c1.34,2.74,3.53,4.42,6.55,5.04.62.14,1.27.22,1.94.22,2.59,0,4.81-.92,6.66-2.77,1.85-1.85,2.77-4.09,2.77-6.73,0-2.35-.65-4.42-1.94-6.19-.53-.67-1.22-1.37-2.09-2.09-.86-.72-1.55-1.24-2.05-1.55-.5-.31-1.38-.83-2.63-1.55-3.17-1.92-5.4-3.67-6.7-5.26-2.26-2.74-3.46-6.41-3.6-11.02h6.05c.05,2.02.36,3.72.94,5.11.58,1.39,1.58,2.64,3.02,3.74.62.48,2.66,1.8,6.12,3.96,2.45,1.54,4.37,3.24,5.76,5.11,2.11,2.78,3.17,6.02,3.17,9.72,0,3.07-.84,5.88-2.52,8.42-1.44,2.21-3.31,3.94-5.62,5.18-2.3,1.25-4.75,1.87-7.34,1.87-2.93,0-5.62-.74-8.06-2.23s-4.34-3.5-5.69-6.05Z"/>
  </g>
  <g class="cls-3">
    <path class="cls-1" d="M491.85,183.51v-17.1h3.24v17.1h-3.24ZM495.09,173.79l-1.22-.58c0-2.18.5-3.92,1.51-5.22s2.46-1.94,4.36-1.94c.86,0,1.64.15,2.34.45.7.3,1.34.8,1.94,1.49l-2.12,2.2c-.36-.38-.76-.66-1.19-.83-.43-.17-.94-.25-1.51-.25-1.2,0-2.18.38-2.95,1.15s-1.15,1.94-1.15,3.53Z"/>
  </g>
  <g class="cls-3">
    <path class="cls-1" d="M504.48,169.36v-2.95h16.24v2.95h-16.24ZM508.66,183.51v-20.2c0-1.13.25-2.13.76-3.01.5-.88,1.19-1.57,2.07-2.09.88-.52,1.9-.77,3.08-.77.89,0,1.67.15,2.34.45.67.3,1.3.71,1.87,1.24l-2.16,2.16c-.29-.26-.6-.46-.94-.59s-.71-.2-1.12-.2c-.84,0-1.49.25-1.94.76-.46.5-.68,1.19-.68,2.05v20.2h-3.28ZM520.47,164.61c-.58,0-1.06-.2-1.44-.59-.38-.4-.58-.89-.58-1.49s.19-1.06.58-1.46c.38-.4.86-.59,1.44-.59.62,0,1.12.2,1.49.59.37.4.56.88.56,1.46s-.19,1.1-.56,1.49c-.37.4-.87.59-1.49.59ZM518.85,183.51v-17.1h3.28v17.1h-3.28Z"/>
    <path class="cls-1" d="M534.07,183.87c-1.56,0-2.96-.39-4.21-1.17-1.25-.78-2.24-1.84-2.97-3.19-.73-1.34-1.1-2.86-1.1-4.54s.37-3.19,1.1-4.54c.73-1.34,1.72-2.41,2.97-3.2s2.65-1.19,4.21-1.19c1.3,0,2.46.27,3.49.81s1.87,1.28,2.5,2.23.99,2.05,1.06,3.29v5.15c-.07,1.22-.42,2.32-1.04,3.28-.62.96-1.45,1.71-2.48,2.25s-2.21.81-3.53.81ZM534.61,180.81c1.08,0,2.03-.25,2.84-.76.82-.5,1.45-1.19,1.91-2.07.46-.88.68-1.88.68-3.01s-.23-2.17-.68-3.04c-.46-.88-1.09-1.57-1.91-2.07-.82-.5-1.76-.76-2.84-.76s-2.03.25-2.84.74c-.82.49-1.46,1.18-1.93,2.05-.47.88-.7,1.89-.7,3.04s.23,2.17.7,3.06,1.12,1.58,1.94,2.07c.83.49,1.77.74,2.83.74ZM543.11,183.51h-3.28v-4.61l.61-4.18-.61-4.14v-12.78h3.28v25.7Z"/>
  </g>
  <rect class="cls-2" width="585.11" height="242.42"/>
  <g class="cls-3">
    <path class="cls-1" d="M193.79,224.62v-14.45h1.55v14.45h-1.55ZM194.75,224.62v-1.43h4.24c1.13,0,2.13-.25,3-.75.87-.5,1.54-1.18,2.03-2.06s.72-1.88.72-3.01-.25-2.12-.73-2.99c-.49-.88-1.17-1.56-2.04-2.05-.87-.49-1.86-.73-2.98-.73h-4.2v-1.43h4.24c1.05,0,2.02.18,2.91.54.89.36,1.67.86,2.33,1.51s1.18,1.41,1.54,2.29.55,1.84.55,2.89-.18,1.97-.55,2.86-.88,1.65-1.53,2.3c-.66.65-1.43,1.16-2.32,1.52s-1.85.55-2.89.55h-4.33Z"/>
    <path class="cls-1" d="M213.51,224.83c-.98,0-1.86-.22-2.65-.67s-1.4-1.06-1.86-1.85c-.46-.78-.68-1.67-.68-2.65s.22-1.84.66-2.61c.44-.78,1.05-1.39,1.82-1.84.77-.45,1.63-.67,2.58-.67s1.71.2,2.4.61c.69.41,1.24.97,1.64,1.69s.6,1.55.6,2.49c0,.11,0,.24-.02.39-.01.15-.04.32-.08.51h-8.55v-1.26h7.73l-.53.46c.01-.71-.11-1.33-.37-1.86-.26-.52-.63-.93-1.11-1.23-.48-.29-1.06-.44-1.73-.44-.71,0-1.34.16-1.87.47-.53.31-.95.75-1.25,1.3-.3.55-.45,1.2-.45,1.94s.16,1.42.47,2c.31.57.76,1.02,1.32,1.34.57.32,1.22.48,1.96.48.59,0,1.13-.11,1.64-.33.5-.22.93-.54,1.28-.98l.97.97c-.46.56-1.04.99-1.72,1.28-.69.29-1.42.44-2.21.44Z"/>
    <path class="cls-1" d="M223.29,224.83c-.53,0-1.04-.07-1.53-.22-.49-.15-.93-.35-1.33-.62s-.75-.58-1.06-.95l.97-.97c.39.48.84.83,1.33,1.06.5.23,1.05.35,1.67.35s1.15-.13,1.52-.38c.37-.25.56-.6.56-1.05,0-.42-.13-.75-.39-.98-.26-.23-.6-.42-1.02-.57-.42-.15-.86-.29-1.32-.42-.46-.13-.9-.3-1.31-.5s-.75-.48-1.02-.84c-.27-.36-.4-.84-.4-1.44,0-.56.14-1.05.42-1.46.28-.41.67-.74,1.18-.97.5-.23,1.11-.35,1.83-.35s1.41.13,2.02.4c.6.27,1.08.66,1.45,1.18l-.97.97c-.28-.38-.64-.67-1.08-.88s-.93-.32-1.48-.32c-.63,0-1.11.12-1.44.37-.33.25-.49.56-.49.96s.13.68.4.89c.27.22.61.39,1.02.53.41.13.85.27,1.31.4.46.13.9.31,1.32.53.42.22.76.51,1.02.88.26.37.39.87.39,1.5,0,.88-.32,1.59-.96,2.11-.64.52-1.5.79-2.59.79Z"/>
    <path class="cls-1" d="M229.91,212.63c-.28,0-.52-.1-.71-.31-.2-.21-.29-.46-.29-.74s.1-.54.29-.74c.2-.2.43-.29.71-.29.31,0,.56.1.75.29.19.2.28.44.28.74s-.09.53-.28.74-.44.31-.75.31ZM229.17,224.62v-9.87h1.49v9.87h-1.49Z"/>
    <path class="cls-1" d="M237.82,224.51c-.92,0-1.75-.22-2.48-.65s-1.3-1.03-1.72-1.79c-.42-.76-.63-1.61-.63-2.56s.21-1.8.63-2.55c.42-.75.99-1.34,1.72-1.77s1.55-.65,2.46-.65c.77,0,1.46.15,2.06.44.6.29,1.09.71,1.47,1.25.38.54.6,1.17.67,1.9v2.79c-.08.71-.31,1.34-.69,1.88-.38.54-.86.96-1.46,1.26-.6.3-1.27.45-2.03.45ZM237.72,228.99c-.99,0-1.88-.19-2.66-.56-.78-.37-1.4-.89-1.88-1.56l.97-.97c.39.53.89.94,1.49,1.24.6.29,1.3.44,2.1.44,1.13,0,2.03-.3,2.69-.9.66-.6.99-1.42.99-2.46v-2.46l.29-2.25-.29-2.23v-2.54h1.49v9.47c0,.95-.22,1.79-.65,2.5-.43.71-1.04,1.27-1.83,1.67s-1.69.6-2.71.6ZM238.1,223.11c.67,0,1.27-.15,1.79-.44.52-.29.92-.71,1.2-1.25.28-.54.42-1.17.42-1.9s-.14-1.32-.43-1.86c-.29-.54-.69-.96-1.2-1.26-.51-.3-1.11-.45-1.8-.45s-1.3.15-1.84.45c-.54.3-.96.72-1.26,1.26-.3.54-.45,1.16-.45,1.86s.15,1.32.46,1.87c.31.55.73.97,1.26,1.27.53.3,1.15.45,1.85.45Z"/>
    <path class="cls-1" d="M245.85,224.62v-9.87h1.49v9.87h-1.49ZM253.05,224.62v-5.8c0-.85-.26-1.55-.78-2.09-.52-.54-1.2-.81-2.04-.81-.56,0-1.06.12-1.49.37-.43.25-.78.58-1.03,1.02-.25.43-.38.93-.38,1.49l-.67-.38c0-.74.17-1.41.52-2,.35-.59.83-1.05,1.43-1.39.6-.34,1.28-.5,2.04-.5s1.43.18,2.02.55c.59.36,1.05.85,1.38,1.47.33.62.49,1.29.49,2.02v6.05h-1.49Z"/>
    <path class="cls-1" d="M261.83,224.83c-.98,0-1.86-.22-2.65-.67s-1.4-1.06-1.86-1.85c-.46-.78-.68-1.67-.68-2.65s.22-1.84.66-2.61c.44-.78,1.05-1.39,1.82-1.84.77-.45,1.63-.67,2.58-.67s1.71.2,2.4.61c.69.41,1.24.97,1.64,1.69s.6,1.55.6,2.49c0,.11,0,.24-.02.39-.01.15-.04.32-.08.51h-8.55v-1.26h7.73l-.53.46c.01-.71-.11-1.33-.37-1.86-.26-.52-.63-.93-1.11-1.23-.48-.29-1.06-.44-1.73-.44-.71,0-1.34.16-1.87.47-.53.31-.95.75-1.25,1.3-.3.55-.45,1.2-.45,1.94s.16,1.42.47,2c.31.57.76,1.02,1.32,1.34.57.32,1.22.48,1.96.48.59,0,1.13-.11,1.64-.33.5-.22.93-.54,1.28-.98l.97.97c-.46.56-1.04.99-1.72,1.28-.69.29-1.42.44-2.21.44Z"/>
    <path class="cls-1" d="M272.79,224.83c-.92,0-1.75-.22-2.48-.67s-1.3-1.06-1.72-1.84c-.42-.78-.63-1.65-.63-2.61s.21-1.86.63-2.64c.42-.78,1-1.39,1.73-1.85.73-.46,1.56-.68,2.47-.68.73,0,1.4.15,2.01.44.61.29,1.11.71,1.5,1.25.39.54.63,1.17.71,1.9v3.09c-.08.71-.32,1.34-.7,1.88-.39.54-.88.96-1.49,1.27-.61.31-1.28.46-2.03.46ZM273.04,223.42c.69,0,1.29-.16,1.81-.48.52-.32.92-.76,1.21-1.32.29-.56.43-1.2.43-1.93s-.15-1.39-.44-1.95c-.29-.56-.7-1-1.22-1.31-.52-.32-1.12-.47-1.81-.47s-1.29.16-1.82.48c-.52.32-.94.76-1.25,1.32-.31.56-.46,1.2-.46,1.93s.15,1.38.45,1.94c.3.57.72,1.01,1.26,1.32.54.32,1.15.47,1.84.47ZM277.89,224.62h-1.49v-2.65l.31-2.44-.31-2.37v-7.41h1.49v14.87Z"/>
  </g>
  <g class="cls-3">
    <path class="cls-1" d="M284.32,216.09v-1.34h7.29v1.34h-7.29ZM286.82,224.62v-11.53c0-.7.15-1.32.45-1.85.3-.53.72-.95,1.26-1.25.54-.3,1.15-.45,1.84-.45.53,0,1,.09,1.41.28.41.19.78.45,1.11.79l-.99.99c-.21-.22-.44-.39-.68-.5-.25-.11-.53-.17-.85-.17-.66,0-1.17.2-1.52.59-.36.39-.54.92-.54,1.6v11.51h-1.49Z"/>
  </g>
  <g class="cls-3">
    <path class="cls-1" d="M297.48,224.83c-.97,0-1.83-.23-2.6-.69s-1.38-1.08-1.84-1.87c-.46-.78-.68-1.66-.68-2.62s.23-1.81.68-2.58c.45-.77,1.07-1.38,1.84-1.84s1.64-.68,2.6-.68,1.82.22,2.59.67c.78.45,1.39,1.06,1.85,1.84.46.78.68,1.64.68,2.59s-.23,1.86-.68,2.63c-.46.78-1.07,1.4-1.85,1.86-.78.46-1.64.69-2.59.69ZM297.48,223.4c.69,0,1.3-.16,1.85-.48.55-.32.97-.77,1.28-1.34.31-.57.46-1.22.46-1.93s-.16-1.33-.47-1.88-.74-.99-1.28-1.31-1.15-.48-1.84-.48-1.3.16-1.85.48c-.55.32-.97.76-1.28,1.31-.31.55-.46,1.18-.46,1.88s.15,1.38.46,1.94c.31.57.73,1.01,1.28,1.33.54.32,1.16.48,1.85.48Z"/>
    <path class="cls-1" d="M304.92,224.62v-9.87h1.49v9.87h-1.49ZM306.41,218.87l-.61-.25c0-1.26.3-2.25.91-2.98.61-.73,1.45-1.09,2.51-1.09.49,0,.94.09,1.34.26s.78.45,1.13.83l-.99,1.03c-.22-.25-.48-.43-.77-.55s-.61-.17-.98-.17c-.76,0-1.37.25-1.85.73-.48.49-.71,1.22-.71,2.18Z"/>
    <path class="cls-1" d="M318.48,224.62v-14.45h1.55v14.45h-1.55ZM319.49,218.82v-1.37h4.24c.6,0,1.14-.12,1.61-.36s.84-.58,1.1-1.02c.27-.44.4-.97.4-1.59s-.13-1.14-.4-1.58c-.27-.44-.63-.78-1.1-1.02s-1-.36-1.61-.36h-4.24v-1.37h4.37c.87,0,1.64.18,2.33.54.69.36,1.23.86,1.63,1.51s.6,1.41.6,2.28-.2,1.65-.6,2.29c-.4.64-.94,1.14-1.63,1.5-.69.36-1.46.54-2.33.54h-4.37Z"/>
  </g>
  <g class="cls-3">
    <path class="cls-1" d="M330.87,224.62v-9.87h1.49v9.87h-1.49ZM332.36,218.87l-.61-.25c0-1.26.3-2.25.91-2.98.61-.73,1.45-1.09,2.51-1.09.49,0,.94.09,1.34.26.41.17.78.45,1.13.83l-.99,1.03c-.22-.25-.48-.43-.77-.55s-.61-.17-.98-.17c-.76,0-1.37.25-1.85.73-.48.49-.71,1.22-.71,2.18Z"/>
  </g>
  <g class="cls-3">
    <path class="cls-1" d="M343.41,224.83c-.98,0-1.86-.22-2.65-.67s-1.4-1.06-1.86-1.85-.68-1.67-.68-2.65.22-1.84.66-2.61c.44-.78,1.05-1.39,1.82-1.84.77-.45,1.63-.67,2.58-.67s1.71.2,2.4.61,1.24.97,1.64,1.69c.4.72.6,1.55.6,2.49,0,.11,0,.24-.02.39-.01.15-.04.32-.08.51h-8.55v-1.26h7.73l-.53.46c.01-.71-.11-1.33-.37-1.86-.26-.52-.63-.93-1.11-1.23-.48-.29-1.06-.44-1.73-.44-.71,0-1.34.16-1.87.47-.53.31-.95.75-1.25,1.3s-.45,1.2-.45,1.94.16,1.42.47,2c.31.57.76,1.02,1.32,1.34.57.32,1.22.48,1.96.48.59,0,1.13-.11,1.64-.33.5-.22.93-.54,1.28-.98l.97.97c-.46.56-1.04.99-1.72,1.28-.69.29-1.42.44-2.21.44Z"/>
    <path class="cls-1" d="M354.64,224.83c-.97,0-1.84-.23-2.61-.68s-1.39-1.07-1.84-1.86c-.45-.78-.67-1.66-.67-2.62s.22-1.84.67-2.61c.45-.78,1.06-1.39,1.84-1.84.78-.45,1.65-.67,2.61-.67.76,0,1.46.14,2.1.42.64.28,1.19.67,1.64,1.18l-.99,1.01c-.34-.38-.74-.67-1.21-.87-.47-.2-.98-.3-1.54-.3-.69,0-1.3.16-1.85.48s-.97.76-1.28,1.31-.46,1.19-.46,1.9.15,1.35.46,1.92c.31.57.74,1.01,1.28,1.33.55.32,1.16.48,1.85.48.56,0,1.08-.1,1.55-.3.48-.2.89-.49,1.24-.87l.99.99c-.46.52-1.02.92-1.67,1.2-.65.28-1.35.42-2.11.42Z"/>
    <path class="cls-1" d="M361.21,212.63c-.28,0-.52-.1-.71-.31s-.29-.46-.29-.74.1-.54.29-.74c.2-.2.43-.29.71-.29.31,0,.56.1.75.29.19.2.28.44.28.74s-.09.53-.28.74c-.19.21-.44.31-.75.31ZM360.48,224.62v-9.87h1.49v9.87h-1.49Z"/>
    <path class="cls-1" d="M367.98,224.83c-.53,0-1.04-.07-1.53-.22-.49-.15-.93-.35-1.33-.62-.4-.27-.75-.58-1.06-.95l.97-.97c.39.48.84.83,1.33,1.06.5.23,1.05.35,1.67.35s1.15-.13,1.52-.38.56-.6.56-1.05c0-.42-.13-.75-.39-.98-.26-.23-.6-.42-1.02-.57-.42-.15-.86-.29-1.32-.42-.46-.13-.9-.3-1.31-.5s-.75-.48-1.02-.84c-.27-.36-.4-.84-.4-1.44,0-.56.14-1.05.42-1.46s.67-.74,1.18-.97c.5-.23,1.11-.35,1.83-.35s1.41.13,2.02.4c.6.27,1.08.66,1.45,1.18l-.97.97c-.28-.38-.64-.67-1.08-.88-.44-.21-.93-.32-1.48-.32-.63,0-1.11.12-1.44.37-.33.25-.49.56-.49.96s.13.68.4.89c.27.22.61.39,1.02.53.41.13.85.27,1.31.4.46.13.9.31,1.32.53.42.22.76.51,1.02.88.26.37.39.87.39,1.5,0,.88-.32,1.59-.96,2.11-.64.52-1.5.79-2.59.79Z"/>
    <path class="cls-1" d="M374.59,212.63c-.28,0-.52-.1-.71-.31s-.29-.46-.29-.74.1-.54.29-.74c.2-.2.43-.29.71-.29.31,0,.56.1.75.29.19.2.28.44.28.74s-.09.53-.28.74c-.19.21-.44.31-.75.31ZM373.86,224.62v-9.87h1.49v9.87h-1.49Z"/>
    <path class="cls-1" d="M382.8,224.83c-.97,0-1.83-.23-2.6-.69-.77-.46-1.38-1.08-1.84-1.87-.46-.78-.68-1.66-.68-2.62s.23-1.81.68-2.58c.45-.77,1.07-1.38,1.84-1.84.77-.46,1.64-.68,2.6-.68s1.82.22,2.59.67c.78.45,1.39,1.06,1.85,1.84.46.78.68,1.64.68,2.59s-.23,1.86-.68,2.63c-.46.78-1.07,1.4-1.85,1.86-.78.46-1.64.69-2.59.69ZM382.8,223.4c.69,0,1.3-.16,1.85-.48.55-.32.97-.77,1.28-1.34.31-.57.46-1.22.46-1.93s-.16-1.33-.47-1.88c-.31-.55-.74-.99-1.28-1.31s-1.15-.48-1.84-.48-1.3.16-1.85.48c-.55.32-.97.76-1.28,1.31-.31.55-.46,1.18-.46,1.88s.15,1.38.46,1.94c.31.57.73,1.01,1.28,1.33.55.32,1.16.48,1.85.48Z"/>
    <path class="cls-1" d="M390.24,224.62v-9.87h1.49v9.87h-1.49ZM397.44,224.62v-5.8c0-.85-.26-1.55-.78-2.09-.52-.54-1.2-.81-2.04-.81-.56,0-1.06.12-1.49.37s-.78.58-1.03,1.02c-.25.43-.38.93-.38,1.49l-.67-.38c0-.74.17-1.41.53-2,.35-.59.83-1.05,1.43-1.39.6-.34,1.28-.5,2.04-.5s1.43.18,2.02.55c.59.36,1.05.85,1.38,1.47.33.62.49,1.29.49,2.02v6.05h-1.49Z"/>
  </g>
</svg>