<?xml version="1.0" encoding="UTF-8"?>
<svg id="Camada_1" data-name="Camada 1" xmlns="http://www.w3.org/2000/svg" viewBox="0 0 685.38 171.89">
  <defs>
    <style>
      .cls-1, .cls-2 {
        fill: #3f3f3f;
      }

      .cls-2 {
        font-family: ProspecLightRegular, 'Prospec Light';
        font-size: 72px;
      }

      .cls-2, .cls-3 {
        isolation: isolate;
      }

      .cls-4 {
        fill: none;
      }
    </style>
  </defs>
  <rect class="cls-4" width="685.38" height="171.89"/>
  <g>
    <g>
      <path class="cls-1" d="M43.23,59.24l5.27,4.6c2.03,1.77,4.63,2.75,7.33,2.75h47.6c2.83,0,5.55-1.07,7.61-3l4.66-4.35c.33-.31.11-.86-.34-.86H43.57c-.46,0-.67.56-.33.87h0Z"/>
      <path class="cls-1" d="M49.94,46.01l3.78,4.16c1.86,2.05,4.5,3.22,7.27,3.22h37.15c2.66,0,5.21-1.08,7.06-3l4.22-4.36c.41-.43.11-1.14-.48-1.14h-58.5c-.58,0-.89.69-.5,1.12Z"/>
      <path class="cls-1" d="M58.14,73.05l4.93,4.86c.09.09.15.22.15.35l-.04,29.98c0,.75.29,1.48.82,2.02l4.82,4.93c.23.23.62.07.62-.25v-33.48c0-.48.39-.86.86-.86h4.19c.48,0,.86.39.86.86v40.13c0,.23.09.45.26.6l6.36,6.09c.23.22.62.06.62-.26v-46.56c0-.48.38-.86.86-.86h3.87c.48,0,.86.38.86.86v34.2c0,.32.39.49.62.26l5.43-5.47c.54-.54.84-1.27.84-2.03v-29.96c0-.24.11-.48.29-.64l5.27-4.74c.59-.53.21-1.5-.58-1.5h-41.32c-.77,0-1.15.93-.6,1.47h0Z"/>
    </g>
    <g class="cls-3">
      <g class="cls-3">
        <text class="cls-2" transform="translate(143.57 100.56)"><tspan x="0" y="0">prometheus</tspan></text>
      </g>
    </g>
    <g class="cls-3">
      <path class="cls-1" d="M588.71,100.52v-17.1h3.24v17.1h-3.24ZM591.95,90.8l-1.22-.58c0-2.18.5-3.92,1.51-5.22,1.01-1.3,2.46-1.94,4.36-1.94.86,0,1.64.15,2.34.45s1.34.8,1.94,1.49l-2.12,2.19c-.36-.38-.76-.66-1.19-.83-.43-.17-.94-.25-1.51-.25-1.2,0-2.18.38-2.95,1.15-.77.77-1.15,1.94-1.15,3.53Z"/>
    </g>
    <g class="cls-3">
      <path class="cls-1" d="M601.34,86.37v-2.95h16.24v2.95h-16.24ZM605.52,100.52v-20.2c0-1.13.25-2.13.76-3.01.5-.88,1.19-1.57,2.07-2.09.88-.52,1.9-.77,3.08-.77.89,0,1.67.15,2.34.45.67.3,1.3.71,1.87,1.24l-2.16,2.16c-.29-.26-.6-.46-.94-.59-.34-.13-.71-.2-1.12-.2-.84,0-1.49.25-1.94.76-.46.5-.68,1.19-.68,2.05v20.2h-3.28ZM617.33,81.62c-.58,0-1.06-.2-1.44-.59-.38-.4-.58-.89-.58-1.49s.19-1.06.58-1.46c.38-.4.86-.59,1.44-.59.62,0,1.12.2,1.49.59.37.4.56.88.56,1.46s-.19,1.1-.56,1.49c-.37.4-.87.59-1.49.59ZM615.71,100.52v-17.1h3.28v17.1h-3.28Z"/>
      <path class="cls-1" d="M630.93,100.88c-1.56,0-2.96-.39-4.21-1.17-1.25-.78-2.24-1.84-2.97-3.19-.73-1.34-1.1-2.86-1.1-4.54s.37-3.19,1.1-4.54c.73-1.34,1.72-2.41,2.97-3.2s2.65-1.19,4.21-1.19c1.3,0,2.46.27,3.49.81,1.03.54,1.87,1.28,2.5,2.23.64.95.99,2.05,1.06,3.29v5.15c-.07,1.22-.42,2.32-1.04,3.28-.62.96-1.45,1.71-2.48,2.25s-2.21.81-3.53.81ZM631.47,97.82c1.08,0,2.03-.25,2.84-.76.81-.5,1.45-1.19,1.91-2.07.46-.88.68-1.88.68-3.01s-.23-2.17-.68-3.04c-.46-.88-1.09-1.57-1.91-2.07-.82-.5-1.76-.76-2.84-.76s-2.03.25-2.84.74c-.82.49-1.46,1.18-1.93,2.05-.47.88-.7,1.89-.7,3.04s.23,2.17.7,3.06,1.12,1.58,1.94,2.07c.83.49,1.77.74,2.83.74ZM639.97,100.52h-3.28v-4.61l.61-4.18-.61-4.14v-12.78h3.28v25.7Z"/>
    </g>
  </g>
  <g class="cls-3">
    <path class="cls-1" d="M240.4,140.67v-14.45h1.55v14.45h-1.55ZM241.36,140.67v-1.43h4.24c1.13,0,2.13-.25,3-.75.87-.5,1.54-1.18,2.03-2.06s.72-1.88.72-3.01-.25-2.12-.73-2.99c-.49-.88-1.17-1.56-2.04-2.05-.87-.49-1.86-.73-2.98-.73h-4.2v-1.43h4.24c1.05,0,2.02.18,2.91.54.89.36,1.67.86,2.33,1.51s1.18,1.41,1.54,2.29.55,1.84.55,2.89-.18,1.97-.55,2.86-.88,1.65-1.53,2.3c-.66.65-1.43,1.16-2.32,1.52s-1.85.55-2.89.55h-4.33Z"/>
    <path class="cls-1" d="M260.12,140.88c-.98,0-1.86-.22-2.65-.67s-1.4-1.06-1.86-1.85c-.46-.78-.68-1.67-.68-2.65s.22-1.84.66-2.61c.44-.78,1.05-1.39,1.82-1.84.77-.45,1.63-.67,2.58-.67s1.71.2,2.4.61c.69.41,1.24.97,1.64,1.69s.6,1.55.6,2.49c0,.11,0,.24-.02.39-.01.15-.04.32-.08.51h-8.55v-1.26h7.73l-.53.46c.01-.71-.11-1.33-.37-1.86-.26-.52-.63-.93-1.11-1.23-.48-.29-1.06-.44-1.73-.44-.71,0-1.34.16-1.87.47-.53.31-.95.75-1.25,1.3-.3.55-.45,1.2-.45,1.94s.16,1.42.47,2c.31.57.76,1.02,1.32,1.34.57.32,1.22.48,1.96.48.59,0,1.13-.11,1.64-.33.5-.22.93-.54,1.28-.98l.97.97c-.46.56-1.04.99-1.72,1.28-.69.29-1.42.44-2.21.44Z"/>
    <path class="cls-1" d="M269.9,140.88c-.53,0-1.04-.07-1.53-.22-.49-.15-.93-.35-1.33-.62s-.75-.58-1.06-.95l.97-.97c.39.48.84.83,1.33,1.06.5.23,1.05.35,1.67.35s1.15-.13,1.52-.38c.37-.25.56-.6.56-1.05,0-.42-.13-.75-.39-.98-.26-.23-.6-.42-1.02-.57-.42-.15-.86-.29-1.32-.42-.46-.13-.9-.3-1.31-.5s-.75-.48-1.02-.84c-.27-.36-.4-.84-.4-1.44,0-.56.14-1.05.42-1.46.28-.41.67-.74,1.18-.97.5-.23,1.11-.35,1.83-.35s1.41.13,2.02.4c.6.27,1.08.66,1.45,1.18l-.97.97c-.28-.38-.64-.67-1.08-.88s-.93-.32-1.48-.32c-.63,0-1.11.12-1.44.37-.33.25-.49.56-.49.96s.13.68.4.89c.27.22.61.39,1.02.53.41.13.85.27,1.31.4.46.13.9.31,1.32.53.42.22.76.51,1.02.88.26.37.39.87.39,1.5,0,.88-.32,1.59-.96,2.11-.64.52-1.5.79-2.59.79Z"/>
    <path class="cls-1" d="M276.52,128.68c-.28,0-.52-.1-.71-.31-.2-.21-.29-.46-.29-.74s.1-.54.29-.74c.2-.2.43-.29.71-.29.31,0,.56.1.75.29.19.2.28.44.28.74s-.09.53-.28.74-.44.31-.75.31ZM275.78,140.67v-9.87h1.49v9.87h-1.49Z"/>
    <path class="cls-1" d="M284.43,140.56c-.92,0-1.75-.22-2.48-.65s-1.3-1.03-1.72-1.79c-.42-.76-.63-1.61-.63-2.56s.21-1.8.63-2.55c.42-.75.99-1.34,1.72-1.77s1.55-.65,2.46-.65c.77,0,1.46.15,2.06.44.6.29,1.09.71,1.47,1.25.38.54.6,1.17.67,1.9v2.79c-.08.71-.31,1.34-.69,1.88-.38.54-.86.96-1.46,1.26-.6.3-1.27.45-2.03.45ZM284.33,145.04c-.99,0-1.88-.19-2.66-.56-.78-.37-1.4-.89-1.88-1.56l.97-.97c.39.53.89.94,1.49,1.24.6.29,1.3.44,2.1.44,1.13,0,2.03-.3,2.69-.9.66-.6.99-1.42.99-2.46v-2.46l.29-2.25-.29-2.23v-2.54h1.49v9.47c0,.95-.22,1.79-.65,2.5-.43.71-1.04,1.27-1.83,1.67s-1.69.6-2.71.6ZM284.71,139.16c.67,0,1.27-.15,1.79-.44.52-.29.92-.71,1.2-1.25.28-.54.42-1.17.42-1.9s-.14-1.32-.43-1.86c-.29-.54-.69-.96-1.2-1.26-.51-.3-1.11-.45-1.8-.45s-1.3.15-1.84.45c-.54.3-.96.72-1.26,1.26-.3.54-.45,1.16-.45,1.86s.15,1.32.46,1.87c.31.55.73.97,1.26,1.27.53.3,1.15.45,1.85.45Z"/>
    <path class="cls-1" d="M292.46,140.67v-9.87h1.49v9.87h-1.49ZM299.66,140.67v-5.8c0-.85-.26-1.55-.78-2.09-.52-.54-1.2-.81-2.04-.81-.56,0-1.06.12-1.49.37-.43.25-.78.58-1.03,1.02-.25.43-.38.93-.38,1.49l-.67-.38c0-.74.17-1.41.52-2,.35-.59.83-1.05,1.43-1.39.6-.34,1.28-.5,2.04-.5s1.43.18,2.02.55c.59.36,1.05.85,1.38,1.47.33.62.49,1.29.49,2.02v6.05h-1.49Z"/>
    <path class="cls-1" d="M308.44,140.88c-.98,0-1.86-.22-2.65-.67s-1.4-1.06-1.86-1.85c-.46-.78-.68-1.67-.68-2.65s.22-1.84.66-2.61c.44-.78,1.05-1.39,1.82-1.84.77-.45,1.63-.67,2.58-.67s1.71.2,2.4.61c.69.41,1.24.97,1.64,1.69s.6,1.55.6,2.49c0,.11,0,.24-.02.39-.01.15-.04.32-.08.51h-8.55v-1.26h7.73l-.53.46c.01-.71-.11-1.33-.37-1.86-.26-.52-.63-.93-1.11-1.23-.48-.29-1.06-.44-1.73-.44-.71,0-1.34.16-1.87.47-.53.31-.95.75-1.25,1.3-.3.55-.45,1.2-.45,1.94s.16,1.42.47,2c.31.57.76,1.02,1.32,1.34.57.32,1.22.48,1.96.48.59,0,1.13-.11,1.64-.33.5-.22.93-.54,1.28-.98l.97.97c-.46.56-1.04.99-1.72,1.28-.69.29-1.42.44-2.21.44Z"/>
    <path class="cls-1" d="M319.4,140.88c-.92,0-1.75-.22-2.48-.67s-1.3-1.06-1.72-1.84c-.42-.78-.63-1.65-.63-2.61s.21-1.86.63-2.64c.42-.78,1-1.39,1.73-1.85.73-.46,1.56-.68,2.47-.68.73,0,1.4.15,2.01.44.61.29,1.11.71,1.5,1.25.39.54.63,1.17.71,1.9v3.09c-.08.71-.32,1.34-.7,1.88-.39.54-.88.96-1.49,1.27-.61.31-1.28.46-2.03.46ZM319.65,139.47c.69,0,1.29-.16,1.81-.48.52-.32.92-.76,1.21-1.32.29-.56.43-1.2.43-1.93s-.15-1.39-.44-1.95c-.29-.56-.7-1-1.22-1.31-.52-.32-1.12-.47-1.81-.47s-1.29.16-1.82.48c-.52.32-.94.76-1.25,1.32-.31.56-.46,1.2-.46,1.93s.15,1.38.45,1.94c.3.57.72,1.01,1.26,1.32.54.32,1.15.47,1.84.47ZM324.5,140.67h-1.49v-2.65l.31-2.44-.31-2.37v-7.41h1.49v14.87Z"/>
  </g>
  <g class="cls-3">
    <path class="cls-1" d="M330.93,132.14v-1.34h7.29v1.34h-7.29ZM333.43,140.67v-11.53c0-.7.15-1.32.45-1.85.3-.53.72-.95,1.26-1.25.54-.3,1.15-.45,1.84-.45.53,0,1,.09,1.41.28.41.19.78.45,1.11.79l-.99.99c-.21-.22-.44-.39-.68-.5-.25-.11-.53-.17-.85-.17-.66,0-1.17.2-1.52.59-.36.39-.54.92-.54,1.6v11.51h-1.49Z"/>
  </g>
  <g class="cls-3">
    <path class="cls-1" d="M344.09,140.88c-.97,0-1.83-.23-2.6-.69s-1.38-1.08-1.84-1.87c-.46-.78-.68-1.66-.68-2.62s.23-1.81.68-2.58c.45-.77,1.07-1.38,1.84-1.84s1.64-.68,2.6-.68,1.82.22,2.59.67c.78.45,1.39,1.06,1.85,1.84.46.78.68,1.64.68,2.59s-.23,1.86-.68,2.63c-.46.78-1.07,1.4-1.85,1.86s-1.64.69-2.59.69ZM344.09,139.45c.69,0,1.3-.16,1.85-.48.55-.32.97-.77,1.28-1.34.31-.57.46-1.22.46-1.93s-.16-1.33-.47-1.88c-.32-.55-.74-.99-1.28-1.31s-1.15-.48-1.84-.48-1.3.16-1.85.48c-.55.32-.97.76-1.28,1.31-.31.55-.46,1.18-.46,1.88s.15,1.38.46,1.94c.31.57.73,1.01,1.28,1.33.55.32,1.16.48,1.85.48Z"/>
    <path class="cls-1" d="M351.53,140.67v-9.87h1.49v9.87h-1.49ZM353.02,134.92l-.61-.25c0-1.26.3-2.25.91-2.98.61-.73,1.45-1.09,2.51-1.09.49,0,.94.09,1.34.26s.78.45,1.13.83l-.99,1.03c-.22-.25-.48-.43-.77-.55-.29-.11-.61-.17-.98-.17-.76,0-1.37.25-1.85.73-.48.49-.71,1.22-.71,2.18Z"/>
    <path class="cls-1" d="M365.09,140.67v-14.45h1.55v14.45h-1.55ZM366.1,134.87v-1.37h4.24c.6,0,1.14-.12,1.61-.36s.84-.58,1.1-1.02c.27-.44.4-.97.4-1.59s-.13-1.14-.4-1.58c-.27-.44-.63-.78-1.1-1.02s-1-.36-1.61-.36h-4.24v-1.37h4.37c.87,0,1.64.18,2.33.54.69.36,1.23.86,1.63,1.51.4.65.6,1.41.6,2.28s-.2,1.65-.6,2.29c-.4.64-.94,1.14-1.63,1.5-.69.36-1.46.54-2.33.54h-4.37Z"/>
  </g>
  <g class="cls-3">
    <path class="cls-1" d="M377.48,140.67v-9.87h1.49v9.87h-1.49ZM378.97,134.92l-.61-.25c0-1.26.3-2.25.91-2.98.61-.73,1.45-1.09,2.51-1.09.49,0,.94.09,1.34.26s.78.45,1.13.83l-.99,1.03c-.22-.25-.48-.43-.77-.55-.29-.11-.61-.17-.98-.17-.76,0-1.37.25-1.85.73-.48.49-.71,1.22-.71,2.18Z"/>
  </g>
  <g class="cls-3">
    <path class="cls-1" d="M390.02,140.88c-.98,0-1.86-.22-2.65-.67s-1.4-1.06-1.86-1.85c-.46-.78-.68-1.67-.68-2.65s.22-1.84.66-2.61c.44-.78,1.05-1.39,1.82-1.84.77-.45,1.63-.67,2.58-.67s1.71.2,2.41.61c.69.41,1.24.97,1.64,1.69.4.72.6,1.55.6,2.49,0,.11,0,.24-.02.39-.01.15-.04.32-.08.51h-8.55v-1.26h7.73l-.53.46c.01-.71-.11-1.33-.37-1.86-.26-.52-.63-.93-1.11-1.23s-1.06-.44-1.73-.44c-.71,0-1.34.16-1.87.47-.53.31-.95.75-1.25,1.3-.3.55-.45,1.2-.45,1.94s.16,1.42.47,2,.76,1.02,1.32,1.34c.57.32,1.22.48,1.96.48.59,0,1.13-.11,1.64-.33.5-.22.93-.54,1.28-.98l.97.97c-.46.56-1.04.99-1.72,1.28-.69.29-1.42.44-2.21.44Z"/>
    <path class="cls-1" d="M401.25,140.88c-.97,0-1.84-.23-2.61-.68-.78-.46-1.39-1.07-1.84-1.86s-.67-1.66-.67-2.62.22-1.84.67-2.61c.45-.78,1.06-1.39,1.84-1.84.78-.45,1.65-.67,2.61-.67.76,0,1.46.14,2.1.42.64.28,1.19.67,1.64,1.18l-.99,1.01c-.34-.38-.74-.67-1.21-.87-.47-.2-.98-.3-1.54-.3-.69,0-1.3.16-1.85.48-.55.32-.97.76-1.28,1.31-.31.55-.46,1.19-.46,1.9s.15,1.35.46,1.92c.31.57.73,1.01,1.28,1.33.55.32,1.16.48,1.85.48.56,0,1.08-.1,1.55-.3s.89-.49,1.24-.87l.99.99c-.46.52-1.02.92-1.67,1.2s-1.35.42-2.11.42Z"/>
    <path class="cls-1" d="M407.83,128.68c-.28,0-.52-.1-.71-.31-.2-.21-.29-.46-.29-.74s.1-.54.29-.74.43-.29.71-.29c.31,0,.56.1.75.29.19.2.28.44.28.74s-.09.53-.28.74c-.19.21-.44.31-.75.31ZM407.09,140.67v-9.87h1.49v9.87h-1.49Z"/>
    <path class="cls-1" d="M414.59,140.88c-.53,0-1.04-.07-1.53-.22-.49-.15-.93-.35-1.33-.62-.4-.27-.75-.58-1.06-.95l.97-.97c.39.48.84.83,1.33,1.06s1.05.35,1.67.35,1.15-.13,1.52-.38c.37-.25.56-.6.56-1.05,0-.42-.13-.75-.39-.98-.26-.23-.6-.42-1.02-.57-.42-.15-.86-.29-1.32-.42s-.9-.3-1.31-.5-.75-.48-1.02-.84c-.27-.36-.4-.84-.4-1.44,0-.56.14-1.05.42-1.46.28-.41.67-.74,1.18-.97.5-.23,1.11-.35,1.83-.35s1.41.13,2.02.4c.6.27,1.08.66,1.45,1.18l-.97.97c-.28-.38-.64-.67-1.08-.88-.44-.21-.93-.32-1.48-.32-.63,0-1.11.12-1.44.37s-.49.56-.49.96.13.68.4.89.61.39,1.02.53.85.27,1.31.4c.46.13.9.31,1.32.53s.76.51,1.02.88.39.87.39,1.5c0,.88-.32,1.59-.96,2.11-.64.52-1.5.79-2.59.79Z"/>
    <path class="cls-1" d="M421.2,128.68c-.28,0-.52-.1-.71-.31-.2-.21-.29-.46-.29-.74s.1-.54.29-.74.43-.29.71-.29c.31,0,.56.1.75.29.19.2.28.44.28.74s-.09.53-.28.74c-.19.21-.44.31-.75.31ZM420.47,140.67v-9.87h1.49v9.87h-1.49Z"/>
    <path class="cls-1" d="M429.41,140.88c-.97,0-1.83-.23-2.6-.69-.77-.46-1.38-1.08-1.84-1.87s-.68-1.66-.68-2.62.23-1.81.68-2.58c.46-.77,1.07-1.38,1.84-1.84.77-.46,1.64-.68,2.6-.68s1.82.22,2.59.67c.78.45,1.39,1.06,1.85,1.84.46.78.68,1.64.68,2.59s-.23,1.86-.68,2.63c-.46.78-1.07,1.4-1.85,1.86s-1.64.69-2.59.69ZM429.41,139.45c.69,0,1.3-.16,1.85-.48.55-.32.97-.77,1.28-1.34.31-.57.46-1.22.46-1.93s-.16-1.33-.47-1.88c-.32-.55-.74-.99-1.28-1.31s-1.15-.48-1.84-.48-1.3.16-1.85.48-.97.76-1.28,1.31-.46,1.18-.46,1.88.15,1.38.46,1.94c.31.57.74,1.01,1.28,1.33.55.32,1.16.48,1.85.48Z"/>
    <path class="cls-1" d="M436.85,140.67v-9.87h1.49v9.87h-1.49ZM444.05,140.67v-5.8c0-.85-.26-1.55-.78-2.09-.52-.54-1.2-.81-2.04-.81-.56,0-1.06.12-1.49.37-.43.25-.78.58-1.03,1.02-.25.43-.38.93-.38,1.49l-.67-.38c0-.74.17-1.41.52-2,.35-.59.83-1.05,1.43-1.39.6-.34,1.28-.5,2.04-.5s1.43.18,2.02.55c.59.36,1.05.85,1.38,1.47.33.62.49,1.29.49,2.02v6.05h-1.49Z"/>
  </g>
</svg>