<?xml version="1.0" encoding="UTF-8"?>
<svg id="Camada_1" data-name="Camada 1" xmlns="http://www.w3.org/2000/svg" viewBox="0 0 585.11 242.42">
  <defs>
    <style>
      .cls-1 {
        fill: none;
      }

      .cls-2 {
        isolation: isolate;
      }

      .cls-3 {
        fill: #e0e1ed;
      }
    </style>
  </defs>
  <g>
    <path class="cls-3" d="M259.84,59.18l5.27,4.6c2.03,1.77,4.63,2.75,7.33,2.75h47.6c2.83,0,5.55-1.07,7.61-3l4.66-4.35c.33-.31.11-.86-.34-.86h-71.79c-.46,0-.67.56-.33.87h0Z"/>
    <path class="cls-3" d="M266.55,45.95l3.78,4.16c1.86,2.05,4.5,3.22,7.27,3.22h37.15c2.66,0,5.21-1.08,7.06-3l4.22-4.36c.41-.43.11-1.14-.48-1.14h-58.5c-.58,0-.89.69-.5,1.12h0Z"/>
    <path class="cls-3" d="M274.75,72.99l4.93,4.86c.09.09.15.22.15.35l-.04,29.98c0,.75.29,1.48.82,2.02l4.82,4.93c.23.23.62.07.62-.25v-33.48c0-.48.39-.86.86-.86h4.19c.48,0,.86.39.86.86v40.13c0,.23.09.45.26.6l6.36,6.09c.23.22.62.06.62-.26v-46.56c0-.48.38-.86.86-.86h3.87c.48,0,.86.38.86.86v34.2c0,.32.39.49.62.26l5.43-5.47c.54-.54.84-1.27.84-2.03v-29.96c0-.24.11-.48.29-.64l5.27-4.74c.59-.53.21-1.5-.58-1.5h-41.32c-.77,0-1.15.93-.6,1.47h.01Z"/>
  </g>
  <g class="cls-2">
    <path class="cls-3" d="M79.65,176.86h14.33c2.02,0,3.74-.73,5.18-2.2,1.44-1.46,2.16-3.2,2.16-5.22s-.72-3.74-2.16-5.18c-1.44-1.44-3.17-2.16-5.18-2.16h-14.33v-6.05h14.33c3.65,0,6.79,1.32,9.43,3.96,2.64,2.64,3.96,5.79,3.96,9.43,0,1.73-.31,3.37-.94,4.93-.62,1.56-1.51,2.96-2.66,4.21-1.15,1.25-2.5,2.23-4.03,2.95-1.82.86-3.74,1.3-5.76,1.3h-8.28v15.41h-6.05v-21.38Z"/>
    <path class="cls-3" d="M130.26,182.83h-11.66v-5.98h14.33c2.02,0,3.74-.73,5.18-2.2,1.44-1.46,2.16-3.2,2.16-5.22s-.72-3.74-2.16-5.18c-1.44-1.44-3.17-2.16-5.18-2.16h-14.33v-6.05h14.33c3.65,0,6.79,1.32,9.43,3.96,2.64,2.64,3.96,5.79,3.96,9.43,0,1.73-.31,3.37-.94,4.93-.62,1.56-1.51,2.96-2.66,4.21-1.15,1.25-2.5,2.23-4.03,2.95l-1.73.79,9.58,15.91h-7.06l-9.22-15.41Z"/>
    <path class="cls-3" d="M164.18,192.7c-4.32-4.32-6.48-9.53-6.48-15.62s2.16-11.29,6.48-15.59c4.32-4.29,9.53-6.44,15.62-6.44s11.29,2.15,15.59,6.44c4.29,4.3,6.44,9.49,6.44,15.59s-2.15,11.3-6.44,15.62c-4.3,4.32-9.49,6.48-15.59,6.48s-11.3-2.16-15.62-6.48ZM168.42,188.48c3.12,3.14,6.9,4.72,11.34,4.72s8.23-1.57,11.38-4.72c3.14-3.14,4.72-6.94,4.72-11.38s-1.57-8.23-4.72-11.38c-3.14-3.14-6.94-4.72-11.38-4.72s-8.22,1.57-11.34,4.72c-3.12,3.14-4.68,6.94-4.68,11.38s1.56,8.23,4.68,11.38Z"/>
    <path class="cls-3" d="M212.92,164.26v-8.21l21.31,19.58,21.38-19.58v42.19h-6.05v-28.51l-15.34,14.04-21.31-19.51ZM212.92,174.41v23.83h6.05v-18.29l-6.05-5.54Z"/>
    <path class="cls-3" d="M266.78,162.1v-6.05h29.16v6.05h-29.16ZM266.78,180.17v-6.05h29.16v6.05h-29.16ZM295.94,192.19v6.05h-29.16v-6.05h29.16Z"/>
    <path class="cls-3" d="M321.13,162.1h-14.04v-6.05h34.13v6.05h-14.04v36.14h-6.05v-36.14Z"/>
    <path class="cls-3" d="M352.38,180.17v-24.12h6.05v18.07h22.1v-18.07h5.98v42.19h-5.98v-18.07h-28.15ZM352.38,187.66v10.58h6.05v-10.58h-6.05Z"/>
    <path class="cls-3" d="M397.67,162.1v-6.05h29.16v6.05h-29.16ZM397.67,180.17v-6.05h29.16v6.05h-29.16ZM426.83,192.19v6.05h-29.16v-6.05h29.16Z"/>
    <path class="cls-3" d="M437.99,156.05h6.05v26.14c0,3.02,1.08,5.62,3.24,7.78s4.75,3.24,7.78,3.24,5.63-1.08,7.81-3.24c2.18-2.16,3.28-4.75,3.28-7.78v-26.14h5.98v26.14c0,4.7-1.67,8.72-5,12.06-3.34,3.34-7.36,5-12.06,5s-8.72-1.67-12.06-5c-3.34-3.34-5-7.36-5-12.06v-26.14Z"/>
    <path class="cls-3" d="M483.28,190.9l5.26-2.95c1.34,2.74,3.53,4.42,6.55,5.04.62.14,1.27.22,1.94.22,2.59,0,4.81-.92,6.66-2.77,1.85-1.85,2.77-4.09,2.77-6.73,0-2.35-.65-4.42-1.94-6.19-.53-.67-1.22-1.37-2.09-2.09-.86-.72-1.55-1.24-2.05-1.55-.5-.31-1.38-.83-2.63-1.55-3.17-1.92-5.4-3.67-6.7-5.26-2.26-2.74-3.46-6.41-3.6-11.02h6.05c.05,2.02.36,3.72.94,5.11.58,1.39,1.58,2.64,3.02,3.74.62.48,2.66,1.8,6.12,3.96,2.45,1.54,4.37,3.24,5.76,5.11,2.11,2.78,3.17,6.02,3.17,9.72,0,3.07-.84,5.88-2.52,8.42-1.44,2.21-3.31,3.94-5.62,5.18-2.3,1.25-4.75,1.87-7.34,1.87-2.93,0-5.62-.74-8.06-2.23-2.45-1.49-4.34-3.5-5.69-6.05Z"/>
  </g>
  <rect class="cls-1" width="585.11" height="242.42"/>
</svg>