<?xml version="1.0" encoding="UTF-8"?>
<svg id="Camada_1" data-name="Camada 1" xmlns="http://www.w3.org/2000/svg" viewBox="0 0 585.11 242.42">
  <defs>
    <style>
      .cls-1 {
        fill: none;
      }

      .cls-2 {
        isolation: isolate;
      }

      .cls-3 {
        fill: #e0e1ed;
      }
    </style>
  </defs>
  <g>
    <path class="cls-3" d="M259.85,59.18l5.27,4.6c2.03,1.77,4.63,2.75,7.33,2.75h47.6c2.83,0,5.55-1.07,7.61-3l4.66-4.35c.33-.31.11-.86-.34-.86h-71.79c-.46,0-.67.56-.33.87h0Z"/>
    <path class="cls-3" d="M266.56,45.95l3.78,4.16c1.86,2.05,4.5,3.22,7.27,3.22h37.15c2.66,0,5.21-1.08,7.06-3l4.22-4.36c.41-.43.11-1.14-.48-1.14h-58.5c-.58,0-.89.69-.5,1.12h0Z"/>
    <path class="cls-3" d="M274.76,72.99l4.93,4.86c.09.09.15.22.15.35l-.04,29.98c0,.75.29,1.48.82,2.02l4.82,4.93c.23.23.62.07.62-.25v-33.48c0-.48.39-.86.86-.86h4.19c.48,0,.86.39.86.86v40.13c0,.23.09.45.26.6l6.36,6.09c.23.22.62.06.62-.26v-46.56c0-.48.38-.86.86-.86h3.87c.48,0,.86.38.86.86v34.2c0,.32.39.49.62.26l5.43-5.47c.54-.54.84-1.27.84-2.03v-29.96c0-.24.11-.48.29-.64l5.27-4.74c.59-.53.21-1.5-.58-1.5h-41.32c-.77,0-1.15.93-.6,1.47h.01Z"/>
  </g>
  <g class="cls-2">
    <path class="cls-3" d="M44.43,176.86h14.33c2.02,0,3.74-.73,5.18-2.2,1.44-1.46,2.16-3.2,2.16-5.22s-.72-3.74-2.16-5.18c-1.44-1.44-3.17-2.16-5.18-2.16h-14.33v-6.05h14.33c3.65,0,6.79,1.32,9.43,3.96,2.64,2.64,3.96,5.79,3.96,9.43,0,1.73-.31,3.37-.94,4.93-.62,1.56-1.51,2.96-2.66,4.21-1.15,1.25-2.5,2.23-4.03,2.95-1.82.86-3.74,1.3-5.76,1.3h-8.28v15.41h-6.05v-21.38Z"/>
    <path class="cls-3" d="M95.05,182.83h-11.66v-5.98h14.33c2.02,0,3.74-.73,5.18-2.2,1.44-1.46,2.16-3.2,2.16-5.22s-.72-3.74-2.16-5.18c-1.44-1.44-3.17-2.16-5.18-2.16h-14.33v-6.05h14.33c3.65,0,6.79,1.32,9.43,3.96,2.64,2.64,3.96,5.79,3.96,9.43,0,1.73-.31,3.37-.94,4.93-.62,1.56-1.51,2.96-2.66,4.21-1.15,1.25-2.5,2.23-4.03,2.95l-1.73.79,9.58,15.91h-7.06l-9.22-15.41Z"/>
    <path class="cls-3" d="M128.96,192.7c-4.32-4.32-6.48-9.53-6.48-15.62s2.16-11.29,6.48-15.59c4.32-4.29,9.53-6.44,15.62-6.44s11.29,2.15,15.59,6.44c4.29,4.3,6.44,9.49,6.44,15.59s-2.15,11.3-6.44,15.62c-4.3,4.32-9.49,6.48-15.59,6.48s-11.3-2.16-15.62-6.48ZM133.21,188.48c3.12,3.14,6.9,4.72,11.34,4.72s8.23-1.57,11.38-4.72c3.14-3.14,4.72-6.94,4.72-11.38s-1.57-8.23-4.72-11.38c-3.14-3.14-6.94-4.72-11.38-4.72s-8.22,1.57-11.34,4.72c-3.12,3.14-4.68,6.94-4.68,11.38s1.56,8.23,4.68,11.38Z"/>
    <path class="cls-3" d="M177.7,164.26v-8.21l21.31,19.58,21.38-19.58v42.19h-6.05v-28.51l-15.34,14.04-21.31-19.51ZM177.7,174.41v23.83h6.05v-18.29l-6.05-5.54Z"/>
    <path class="cls-3" d="M231.56,162.1v-6.05h29.16v6.05h-29.16ZM231.56,180.17v-6.05h29.16v6.05h-29.16ZM260.72,192.19v6.05h-29.16v-6.05h29.16Z"/>
    <path class="cls-3" d="M285.92,162.1h-14.04v-6.05h34.13v6.05h-14.04v36.14h-6.05v-36.14Z"/>
    <path class="cls-3" d="M317.16,180.17v-24.12h6.05v18.07h22.1v-18.07h5.98v42.19h-5.98v-18.07h-28.15ZM317.16,187.66v10.58h6.05v-10.58h-6.05Z"/>
    <path class="cls-3" d="M362.45,162.1v-6.05h29.16v6.05h-29.16ZM362.45,180.17v-6.05h29.16v6.05h-29.16ZM391.61,192.19v6.05h-29.16v-6.05h29.16Z"/>
    <path class="cls-3" d="M402.77,156.05h6.05v26.14c0,3.02,1.08,5.62,3.24,7.78s4.75,3.24,7.78,3.24,5.63-1.08,7.81-3.24c2.18-2.16,3.28-4.75,3.28-7.78v-26.14h5.98v26.14c0,4.7-1.67,8.72-5,12.06-3.34,3.34-7.36,5-12.06,5s-8.72-1.67-12.06-5c-3.34-3.34-5-7.36-5-12.06v-26.14Z"/>
    <path class="cls-3" d="M448.06,190.9l5.26-2.95c1.34,2.74,3.53,4.42,6.55,5.04.62.14,1.27.22,1.94.22,2.59,0,4.81-.92,6.66-2.77,1.85-1.85,2.77-4.09,2.77-6.73,0-2.35-.65-4.42-1.94-6.19-.53-.67-1.22-1.37-2.09-2.09-.86-.72-1.55-1.24-2.05-1.55-.5-.31-1.38-.83-2.63-1.55-3.17-1.92-5.4-3.67-6.7-5.26-2.26-2.74-3.46-6.41-3.6-11.02h6.05c.05,2.02.36,3.72.94,5.11.58,1.39,1.58,2.64,3.02,3.74.62.48,2.66,1.8,6.12,3.96,2.45,1.54,4.37,3.24,5.76,5.11,2.11,2.78,3.17,6.02,3.17,9.72,0,3.07-.84,5.88-2.52,8.42-1.44,2.21-3.31,3.94-5.62,5.18-2.3,1.25-4.75,1.87-7.34,1.87-2.93,0-5.62-.74-8.06-2.23-2.45-1.49-4.34-3.5-5.69-6.05Z"/>
  </g>
  <g class="cls-2">
    <path class="cls-3" d="M489.57,198.2v-17.1h3.24v17.1h-3.24ZM492.81,188.48l-1.22-.58c0-2.18.5-3.92,1.51-5.22,1.01-1.3,2.46-1.94,4.36-1.94.86,0,1.64.15,2.34.45s1.34.8,1.94,1.49l-2.12,2.2c-.36-.38-.76-.66-1.19-.83-.43-.17-.94-.25-1.51-.25-1.2,0-2.18.38-2.95,1.15s-1.15,1.94-1.15,3.53Z"/>
  </g>
  <g class="cls-2">
    <path class="cls-3" d="M502.2,184.05v-2.95h16.24v2.95h-16.24ZM506.38,198.2v-20.2c0-1.13.25-2.13.76-3.01.5-.88,1.19-1.57,2.07-2.09.88-.52,1.9-.77,3.08-.77.89,0,1.67.15,2.34.45.67.3,1.3.71,1.87,1.24l-2.16,2.16c-.29-.26-.6-.46-.94-.59-.34-.13-.71-.2-1.12-.2-.84,0-1.49.25-1.94.76s-.68,1.19-.68,2.05v20.2h-3.28ZM518.19,179.3c-.58,0-1.06-.2-1.44-.59-.38-.4-.58-.89-.58-1.49s.19-1.06.58-1.46c.38-.4.86-.59,1.44-.59.62,0,1.12.2,1.49.59.37.4.56.88.56,1.46s-.19,1.1-.56,1.49c-.37.4-.87.59-1.49.59ZM516.57,198.2v-17.1h3.28v17.1h-3.28Z"/>
    <path class="cls-3" d="M531.79,198.56c-1.56,0-2.96-.39-4.21-1.17-1.25-.78-2.24-1.84-2.97-3.19-.73-1.34-1.1-2.86-1.1-4.54s.37-3.19,1.1-4.54c.73-1.34,1.72-2.41,2.97-3.2s2.65-1.19,4.21-1.19c1.3,0,2.46.27,3.49.81,1.03.54,1.87,1.28,2.5,2.23.64.95.99,2.05,1.06,3.29v5.15c-.07,1.22-.42,2.32-1.04,3.28-.62.96-1.45,1.71-2.48,2.25-1.03.54-2.21.81-3.53.81ZM532.33,195.5c1.08,0,2.03-.25,2.84-.76s1.45-1.19,1.91-2.07c.46-.88.68-1.88.68-3.01s-.23-2.17-.68-3.04c-.46-.88-1.09-1.57-1.91-2.07-.82-.5-1.76-.76-2.84-.76s-2.03.25-2.84.74c-.82.49-1.46,1.18-1.93,2.05-.47.88-.7,1.89-.7,3.04s.23,2.17.7,3.06c.47.89,1.12,1.58,1.94,2.07.83.49,1.77.74,2.83.74ZM540.83,198.2h-3.28v-4.61l.61-4.18-.61-4.14v-12.78h3.28v25.7Z"/>
  </g>
  <rect class="cls-1" width="585.11" height="242.42"/>
</svg>