<?xml version="1.0" encoding="UTF-8"?>
<svg id="Camada_1" data-name="Camada 1" xmlns="http://www.w3.org/2000/svg" viewBox="0 0 298.31 171.89">
  <defs>
    <style>
      .cls-1 {
        fill: none;
      }

      .cls-2 {
        fill: #e0e0ec;
      }
    </style>
  </defs>
  <rect class="cls-1" width="298.31" height="171.89"/>
  <g>
    <g>
      <path class="cls-2" d="M51.8,62.56l4.5,3.93c1.73,1.51,3.95,2.35,6.26,2.35h40.63c2.42,0,4.74-.91,6.5-2.56l3.98-3.71c.28-.26.09-.73-.29-.73h-61.27c-.39,0-.57.48-.28.74h0Z"/>
      <path class="cls-2" d="M57.53,51.27l3.23,3.55c1.59,1.75,3.84,2.75,6.21,2.75h31.71c2.27,0,4.45-.92,6.03-2.56l3.6-3.72c.35-.37.09-.97-.41-.97h-49.93c-.5,0-.76.59-.43.96Z"/>
      <path class="cls-2" d="M64.53,74.35l4.21,4.15c.08.08.13.19.13.3l-.03,25.59c0,.64.25,1.26.7,1.72l4.11,4.21c.2.2.53.06.53-.21v-28.58c0-.41.33-.73.73-.73h3.58c.41,0,.73.33.73.73v34.25c0,.2.08.38.22.51l5.43,5.2c.2.19.53.05.53-.22v-39.74c0-.41.32-.73.73-.73h3.3c.41,0,.73.32.73.73v29.19c0,.27.33.42.53.22l4.63-4.67c.46-.46.72-1.08.72-1.73v-25.57c0-.2.09-.41.25-.55l4.5-4.05c.5-.45.18-1.28-.5-1.28h-35.27c-.66,0-.98.79-.51,1.25h0Z"/>
    </g>
    <g>
      <path class="cls-2" d="M144.41,88.24h-11.5v-5.89h14.13c1.99,0,3.69-.72,5.11-2.17,1.42-1.44,2.13-3.16,2.13-5.15s-.71-3.69-2.13-5.11c-1.42-1.42-3.12-2.13-5.11-2.13h-14.13v-5.96h14.13c3.6,0,6.7,1.3,9.3,3.9,2.6,2.6,3.9,5.7,3.9,9.3,0,1.7-.31,3.33-.92,4.86-.62,1.54-1.49,2.92-2.63,4.15-1.14,1.23-2.46,2.2-3.98,2.91l-1.7.78,9.44,15.69h-6.96l-9.09-15.19Z"/>
      <path class="cls-2" d="M167.98,67.79v-5.96h28.75v5.96h-28.75ZM167.98,79.65h28.75v5.96h-22.79v17.82h-5.96v-23.79Z"/>
      <path class="cls-2" d="M204.33,61.83h5.96v41.61h-5.96v-41.61Z"/>
      <path class="cls-2" d="M225.84,67.72h-7.95v-5.89h7.95c5.73,0,10.63,2.04,14.7,6.11,4.07,4.07,6.11,8.96,6.11,14.66s-2.04,10.6-6.11,14.7c-4.07,4.09-8.97,6.14-14.7,6.14h-7.95v-5.96h7.95c4.12,0,7.63-1.46,10.54-4.37,2.91-2.91,4.37-6.4,4.37-10.47s-1.46-7.57-4.37-10.51c-2.91-2.93-6.43-4.4-10.54-4.4Z"/>
    </g>
  </g>
</svg>