<?xml version="1.0" encoding="UTF-8"?>
<svg id="Camada_1" data-name="Camada 1" xmlns="http://www.w3.org/2000/svg" viewBox="0 0 389.71 389.71">
  <defs>
    <style>
      .cls-1 {
        fill: none;
      }

      .cls-2 {
        fill: #e0e1ed;
      }
    </style>
  </defs>
  <g>
    <path class="cls-2" d="M71.45,101.52l17.96,15.66c6.92,6.03,15.78,9.36,24.96,9.36h162.14c9.62,0,18.89-3.65,25.92-10.22l15.87-14.83c1.11-1.05.36-2.92-1.17-2.92H72.58c-1.55,0-2.29,1.92-1.13,2.96Z"/>
    <path class="cls-2" d="M94.28,56.45l12.88,14.17c6.34,6.98,15.33,10.95,24.76,10.95h126.55c9.07,0,17.75-3.68,24.06-10.21l14.37-14.87c1.4-1.45.37-3.87-1.64-3.87H95.97c-1.98,0-3.02,2.35-1.69,3.82Z"/>
    <path class="cls-2" d="M122.21,148.58l16.8,16.55c.32.32.5.75.5,1.21l-.14,102.13c0,2.57,1,5.04,2.8,6.87l16.44,16.81c.78.79,2.13.24,2.13-.87v-114.07c0-1.62,1.31-2.93,2.93-2.93h14.27c1.62,0,2.93,1.31,2.93,2.93v136.72c0,.78.32,1.52.88,2.06l21.68,20.74c.79.75,2.1.2,2.1-.9v-158.6c0-1.62,1.31-2.93,2.93-2.93h13.19c1.62-.01,2.94,1.3,2.94,2.92l-.02,116.51c0,1.11,1.34,1.66,2.12.87l18.49-18.63c1.82-1.84,2.85-4.32,2.85-6.91v-102.07c.01-.83.37-1.62.99-2.18l17.96-16.15c2-1.8.73-5.11-1.96-5.11H124.27c-2.62,0-3.93,3.18-2.06,5.02Z"/>
  </g>
  <rect class="cls-1" width="389.71" height="389.71"/>
</svg>